<svg width="24" height="24" viewBox="0 0 24 24" fill="none" xmlns="http://www.w3.org/2000/svg">
<path d="M5.151 13.326L12.045 6.43199C12.6779 5.79905 13.5364 5.44347 14.4315 5.44347C15.3266 5.44347 16.1851 5.79905 16.818 6.43199C17.4509 7.06493 17.8065 7.92338 17.8065 8.81849C17.8065 9.7136 17.4509 10.5721 16.818 11.205L8.865 19.1595C8.76201 19.27 8.63781 19.3587 8.49981 19.4202C8.36181 19.4817 8.21284 19.5147 8.06178 19.5174C7.91073 19.52 7.76069 19.4923 7.6206 19.4357C7.48052 19.3791 7.35327 19.2949 7.24644 19.188C7.13961 19.0812 7.0554 18.954 6.99882 18.8139C6.94223 18.6738 6.91445 18.5238 6.91711 18.3727C6.91978 18.2217 6.95284 18.0727 7.01433 17.9347C7.07582 17.7967 7.16447 17.6725 7.275 17.5695L15.2295 9.61349C15.4401 9.40205 15.5582 9.11558 15.5576 8.81712C15.557 8.51866 15.4379 8.23264 15.2265 8.02199C15.0151 7.81134 14.7286 7.69332 14.4301 7.69388C14.1317 7.69444 13.8456 7.81355 13.635 8.02499L5.6805 15.9795C5.04756 16.6124 4.69198 17.4709 4.69198 18.366C4.69198 19.2611 5.04756 20.1196 5.6805 20.7525C6.31344 21.3854 7.17189 21.741 8.067 21.741C8.96211 21.741 9.82056 21.3854 10.4535 20.7525L18.408 12.798C18.9305 12.2758 19.345 11.6558 19.6279 10.9734C19.9108 10.291 20.0565 9.55955 20.0567 8.82083C20.0569 8.08212 19.9116 7.3506 19.6291 6.66804C19.3466 5.98547 18.9325 5.36524 18.4103 4.84274C17.888 4.32024 17.268 3.90572 16.5856 3.62283C15.9032 3.33995 15.1718 3.19424 14.4331 3.19403C12.9412 3.19361 11.5102 3.78586 10.455 4.84049L3.5595 11.7345C3.34845 11.9455 3.22989 12.2318 3.22989 12.5302C3.22989 12.8287 3.34845 13.1149 3.5595 13.326C3.77055 13.537 4.05679 13.6556 4.35525 13.6556C4.65371 13.6556 4.93995 13.537 5.151 13.326V13.326Z" fill="#79A3B1"/>
</svg>
