<svg width="24" height="24" viewBox="0 0 24 24" fill="none" xmlns="http://www.w3.org/2000/svg">
<path d="M18.1667 14.3798C17.495 14.2353 16.9636 14.5471 16.4931 14.8195C16.0112 15.1002 15.095 15.8434 14.5698 15.6532C11.8809 14.5461 9.35198 12.1926 8.25724 9.49295C8.06429 8.95656 8.80409 8.03449 9.08268 7.54695C9.35301 7.07501 9.65842 6.53861 9.51913 5.86188C9.39325 5.25375 7.76507 3.18197 7.18932 2.61542C6.80962 2.24119 6.42063 2.03537 6.02132 2.0021C4.52004 1.93765 2.84336 3.94082 2.5493 4.42005C1.81259 5.44191 1.81672 6.80161 2.56168 8.45031C4.35702 12.8787 11.1473 19.5618 15.5923 21.4247C16.4126 21.8083 17.1627 22.0006 17.8365 22.0006C18.4958 22.0006 19.0829 21.8166 19.5875 21.4517C19.9682 21.2324 22.0535 19.4724 21.9988 17.9308C21.9658 17.5379 21.7604 17.1449 21.3911 16.7645C20.8287 16.1834 18.7703 14.5066 18.1667 14.3798Z" fill="#FDFBF5"/>
</svg>
