<svg width="32" height="32" viewBox="0 0 32 32" fill="none" xmlns="http://www.w3.org/2000/svg">
<path d="M13.2842 25.6372C13.9508 25.4962 18.0124 25.4962 18.6789 25.6372C19.2487 25.7688 19.8649 26.0763 19.8649 26.7478C19.8318 27.387 19.4568 27.9537 18.9386 28.3136C18.2668 28.8373 17.4783 29.169 16.6541 29.2885C16.1982 29.3476 15.7503 29.3489 15.3104 29.2885C14.4848 29.169 13.6964 28.8373 13.0258 28.3122C12.5064 27.9537 12.1314 27.387 12.0982 26.7478C12.0982 26.0763 12.7144 25.7688 13.2842 25.6372ZM16.0603 2.66666C18.8338 2.66666 21.667 3.98268 23.3499 6.16621C24.4419 7.57221 24.9428 8.97686 24.9428 11.1604V11.7284C24.9428 13.403 25.3854 14.39 26.3593 15.5274C27.0975 16.3654 27.3333 17.4411 27.3333 18.608C27.3333 19.7736 26.9504 20.8802 26.1831 21.7786C25.1786 22.8556 23.7621 23.5431 22.3163 23.6626C20.2213 23.8412 18.1249 23.9916 16.0007 23.9916C13.8751 23.9916 11.7801 23.9017 9.685 23.6626C8.23794 23.5431 6.82136 22.8556 5.81822 21.7786C5.05096 20.8802 4.66666 19.7736 4.66666 18.608C4.66666 17.4411 4.90387 16.3654 5.64065 15.5274C6.64511 14.39 7.05856 13.403 7.05856 11.7284V11.1604C7.05856 8.91778 7.61777 7.45135 8.76932 6.01581C10.4814 3.92225 13.2258 2.66666 15.941 2.66666H16.0603Z" fill="#456268"/>
</svg>
