<svg width="26" height="26" viewBox="0 0 26 26" fill="none" xmlns="http://www.w3.org/2000/svg">
<g clip-path="url(#clip0)">
<path d="M20.6718 4.26489C20.1507 3.73012 19.3796 3.53089 18.6605 3.7406L1.89324 8.6165C1.13459 8.82726 0.596874 9.43229 0.452023 10.2009C0.304046 10.9831 0.820924 11.9761 1.4962 12.3914L6.73897 15.6137C7.27669 15.944 7.97073 15.8611 8.4157 15.4123L14.4192 9.37148C14.7214 9.0569 15.2216 9.0569 15.5238 9.37148C15.826 9.67556 15.826 10.1684 15.5238 10.483L9.5099 16.5249C9.06388 16.9726 8.98051 17.6699 9.30877 18.211L12.5122 23.5063C12.8873 24.1355 13.5334 24.492 14.242 24.492C14.3254 24.492 14.4192 24.492 14.5026 24.4815C15.3154 24.3767 15.9615 23.8209 16.2012 23.0345L21.172 6.28865C21.3908 5.57562 21.1928 4.79967 20.6718 4.26489Z" fill="#FDFBF5"/>
</g>
<defs>
<clipPath id="clip0">
<rect width="25" height="25" fill="white" transform="translate(0.0752869 0.575317)"/>
</clipPath>
</defs>
</svg>
